<svg xmlns="http://www.w3.org/2000/svg" xmlns:xlink="http://www.w3.org/1999/xlink" width="500" zoomAndPan="magnify" viewBox="0 0 375 374.999991" height="500" preserveAspectRatio="xMidYMid meet" version="1.0"><defs><g/></defs><rect x="-37.5" width="450" fill="#ffffff" y="-37.499999" height="449.999989" fill-opacity="1"/><rect x="-37.5" width="450" fill="#ffffff" y="-37.499999" height="449.999989" fill-opacity="1"/><path fill="#0097b2" d="M 73.128906 137.328125 C 74.238281 137.328125 75.136719 138.234375 75.136719 139.339844 L 75.136719 280.207031 C 75.136719 283.34375 77.6875 285.898438 80.824219 285.898438 L 294.175781 285.898438 C 297.3125 285.898438 299.855469 283.34375 299.855469 280.207031 L 299.855469 139.339844 C 299.855469 138.234375 300.757812 137.328125 301.867188 137.328125 L 314.984375 137.328125 L 194.636719 50.664062 C 192.820312 49.355469 190.226562 48.609375 187.5 48.609375 C 184.773438 48.609375 182.171875 49.355469 180.363281 50.664062 L 113.03125 99.152344 C 112.675781 99.40625 112.265625 99.535156 111.851562 99.535156 C 111.542969 99.535156 111.21875 99.457031 110.9375 99.304688 C 110.265625 98.960938 109.84375 98.277344 109.84375 97.523438 L 109.84375 81.589844 C 109.84375 80.472656 110.738281 79.578125 111.851562 79.578125 L 113.683594 79.578125 L 113.683594 72.5 L 87.753906 72.5 L 87.753906 79.578125 L 89.574219 79.578125 C 90.6875 79.578125 91.582031 80.472656 91.582031 81.589844 L 91.582031 113.5625 C 91.582031 114.203125 91.273438 114.816406 90.75 115.191406 L 60.011719 137.328125 Z M 80.824219 294.605469 C 72.886719 294.605469 66.425781 288.148438 66.425781 280.207031 L 66.425781 146.046875 L 58.441406 146.046875 C 51.75 146.046875 49.453125 143.292969 48.707031 140.980469 C 47.960938 138.667969 48.210938 135.085938 53.648438 131.175781 L 82.878906 110.132812 L 82.878906 87.472656 C 80.554688 86.242188 79.035156 83.820312 79.035156 81.117188 L 79.035156 70.960938 C 79.035156 67 82.253906 63.785156 86.214844 63.785156 L 115.222656 63.785156 C 119.171875 63.785156 122.390625 67 122.390625 70.960938 L 122.390625 81.117188 C 122.390625 81.308594 122.390625 81.5 122.371094 81.679688 L 175.265625 43.59375 C 178.582031 41.207031 182.925781 39.894531 187.5 39.894531 C 192.074219 39.894531 196.417969 41.207031 199.734375 43.59375 L 321.351562 131.175781 C 326.777344 135.085938 327.03125 138.667969 326.285156 140.980469 C 325.542969 143.292969 323.25 146.046875 316.554688 146.046875 L 308.570312 146.046875 L 308.570312 280.207031 C 308.570312 288.148438 302.105469 294.605469 294.175781 294.605469 L 80.824219 294.605469 " fill-opacity="1" fill-rule="nonzero"/><path fill="#0097b2" d="M 111.851562 101.546875 C 112.675781 101.546875 113.5 101.285156 114.207031 100.78125 L 181.527344 52.296875 C 182.984375 51.246094 185.21875 50.621094 187.5 50.621094 C 189.773438 50.621094 192.003906 51.246094 193.460938 52.296875 L 308.753906 135.316406 L 301.867188 135.316406 C 299.644531 135.316406 297.84375 137.117188 297.84375 139.339844 L 297.84375 280.207031 C 297.84375 282.238281 296.195312 283.886719 294.175781 283.886719 L 80.824219 283.886719 C 78.796875 283.886719 77.144531 282.238281 77.144531 280.207031 L 77.144531 139.339844 C 77.144531 137.117188 75.347656 135.316406 73.128906 135.316406 L 66.242188 135.316406 L 91.925781 116.828125 C 92.980469 116.066406 93.59375 114.847656 93.59375 113.5625 L 93.59375 81.589844 C 93.59375 79.425781 91.894531 77.667969 89.765625 77.566406 L 89.765625 74.511719 L 111.671875 74.511719 L 111.671875 77.566406 C 109.53125 77.667969 107.832031 79.425781 107.832031 81.589844 L 107.832031 97.523438 C 107.832031 99.03125 108.675781 100.410156 110.023438 101.09375 C 110.597656 101.394531 111.21875 101.546875 111.851562 101.546875 Z M 187.5 37.882812 C 182.503906 37.882812 177.738281 39.328125 174.085938 41.960938 L 124.402344 77.738281 L 124.402344 70.960938 C 124.402344 65.894531 120.277344 61.773438 115.222656 61.773438 L 86.214844 61.773438 C 81.148438 61.773438 77.027344 65.894531 77.027344 70.960938 L 77.027344 81.117188 C 77.027344 84.132812 78.511719 86.898438 80.867188 88.585938 L 80.867188 109.097656 L 52.46875 129.546875 C 45.714844 134.402344 46.019531 139.179688 46.796875 141.601562 C 47.578125 144.003906 50.125 148.058594 58.441406 148.058594 L 64.414062 148.058594 L 64.414062 280.207031 C 64.414062 289.257812 71.773438 296.617188 80.824219 296.617188 L 294.175781 296.617188 C 303.222656 296.617188 310.582031 289.257812 310.582031 280.207031 L 310.582031 148.058594 L 316.554688 148.058594 C 324.867188 148.058594 327.421875 144.003906 328.195312 141.59375 C 328.980469 139.179688 329.273438 134.402344 322.527344 129.546875 L 200.914062 41.960938 C 197.253906 39.328125 192.496094 37.882812 187.5 37.882812 Z M 111.851562 97.523438 L 111.851562 81.589844 L 115.222656 81.589844 C 115.472656 81.589844 115.695312 81.378906 115.695312 81.117188 L 115.695312 70.960938 C 115.695312 70.699219 115.472656 70.488281 115.222656 70.488281 L 86.214844 70.488281 C 85.953125 70.488281 85.742188 70.699219 85.742188 70.960938 L 85.742188 81.117188 C 85.742188 81.378906 85.953125 81.589844 86.214844 81.589844 L 89.574219 81.589844 L 89.574219 113.5625 L 57.5625 136.613281 C 56.027344 137.722656 55.453125 138.496094 55.234375 138.878906 C 55.628906 139.046875 56.550781 139.339844 58.441406 139.339844 L 73.128906 139.339844 L 73.128906 280.207031 C 73.128906 284.449219 76.582031 287.910156 80.824219 287.910156 L 294.175781 287.910156 C 298.417969 287.910156 301.867188 284.449219 301.867188 280.207031 L 301.867188 139.339844 L 316.554688 139.339844 C 318.445312 139.339844 319.371094 139.046875 319.761719 138.878906 C 319.550781 138.496094 318.96875 137.722656 317.4375 136.613281 L 195.816406 49.035156 C 193.664062 47.484375 190.636719 46.597656 187.5 46.597656 C 184.363281 46.597656 181.328125 47.484375 179.183594 49.035156 L 111.851562 97.523438 M 187.5 41.90625 C 191.652344 41.90625 195.582031 43.082031 198.558594 45.222656 L 320.171875 132.804688 C 324.617188 136.011719 324.910156 138.6875 324.367188 140.367188 C 323.832031 142.035156 322.035156 144.035156 316.554688 144.035156 L 306.558594 144.035156 L 306.558594 280.207031 C 306.558594 287.042969 301 292.59375 294.175781 292.59375 L 80.824219 292.59375 C 73.992188 292.59375 68.433594 287.042969 68.433594 280.207031 L 68.433594 144.035156 L 58.441406 144.035156 C 52.960938 144.035156 51.164062 142.035156 50.625 140.367188 C 50.078125 138.6875 50.375 136.011719 54.824219 132.804688 L 84.886719 111.160156 L 84.886719 86.101562 C 82.675781 85.519531 81.046875 83.5 81.046875 81.117188 L 81.046875 70.960938 C 81.046875 68.117188 83.359375 65.792969 86.214844 65.792969 L 115.222656 65.792969 C 118.066406 65.792969 120.378906 68.117188 120.378906 70.960938 L 120.378906 81.117188 C 120.378906 83.5 118.75 85.519531 116.539062 86.101562 L 116.539062 88.355469 L 176.441406 45.222656 C 179.417969 43.082031 183.335938 41.90625 187.5 41.90625 " fill-opacity="1" fill-rule="nonzero"/><g fill="#ffffff" fill-opacity="1"><g transform="translate(106.183591, 275.762149)"><g><path d="M 19.875 0 L 0.859375 0 L 0.859375 -3.515625 L 13.109375 -21.078125 L 1.1875 -21.078125 L 1.1875 -25.546875 L 19.546875 -25.546875 L 19.546875 -22.0625 L 7.3125 -4.46875 L 19.875 -4.46875 Z M 19.875 0 "/></g></g></g><g fill="#ffffff" fill-opacity="1"><g transform="translate(126.909092, 275.762149)"><g><path d="M 10.890625 -16.109375 C 9.753906 -16.109375 8.863281 -15.75 8.21875 -15.03125 C 7.582031 -14.320312 7.21875 -13.304688 7.125 -11.984375 L 14.609375 -11.984375 C 14.585938 -13.304688 14.242188 -14.320312 13.578125 -15.03125 C 12.910156 -15.75 12.015625 -16.109375 10.890625 -16.109375 Z M 11.640625 0.34375 C 8.492188 0.34375 6.035156 -0.519531 4.265625 -2.25 C 2.492188 -3.988281 1.609375 -6.445312 1.609375 -9.625 C 1.609375 -12.90625 2.425781 -15.4375 4.0625 -17.21875 C 5.695312 -19.007812 7.960938 -19.90625 10.859375 -19.90625 C 13.617188 -19.90625 15.765625 -19.117188 17.296875 -17.546875 C 18.835938 -15.972656 19.609375 -13.800781 19.609375 -11.03125 L 19.609375 -8.4375 L 7.015625 -8.4375 C 7.066406 -6.925781 7.507812 -5.742188 8.34375 -4.890625 C 9.1875 -4.046875 10.367188 -3.625 11.890625 -3.625 C 13.066406 -3.625 14.175781 -3.742188 15.21875 -3.984375 C 16.269531 -4.234375 17.367188 -4.625 18.515625 -5.15625 L 18.515625 -1.03125 C 17.578125 -0.5625 16.578125 -0.21875 15.515625 0 C 14.460938 0.226562 13.171875 0.34375 11.640625 0.34375 Z M 11.640625 0.34375 "/></g></g></g><g fill="#ffffff" fill-opacity="1"><g transform="translate(148.053996, 275.762149)"><g/></g></g><g fill="#ffffff" fill-opacity="1"><g transform="translate(157.350764, 275.762149)"><g><path d="M 24.15625 0 L 18.75 0 L 18.75 -11.03125 L 8.640625 -11.03125 L 8.640625 0 L 3.21875 0 L 3.21875 -25.546875 L 8.640625 -25.546875 L 8.640625 -15.53125 L 18.75 -15.53125 L 18.75 -25.546875 L 24.15625 -25.546875 Z M 24.15625 0 "/></g></g></g><g fill="#ffffff" fill-opacity="1"><g transform="translate(184.734288, 275.762149)"><g><path d="M 15.203125 0 L 14.171875 -2.65625 L 14.03125 -2.65625 C 13.132812 -1.53125 12.210938 -0.75 11.265625 -0.3125 C 10.316406 0.125 9.078125 0.34375 7.546875 0.34375 C 5.671875 0.34375 4.191406 -0.1875 3.109375 -1.25 C 2.035156 -2.320312 1.5 -3.851562 1.5 -5.84375 C 1.5 -7.914062 2.222656 -9.441406 3.671875 -10.421875 C 5.128906 -11.410156 7.320312 -11.957031 10.25 -12.0625 L 13.640625 -12.171875 L 13.640625 -13.015625 C 13.640625 -15.003906 12.625 -16 10.59375 -16 C 9.03125 -16 7.195312 -15.523438 5.09375 -14.578125 L 3.328125 -18.171875 C 5.566406 -19.347656 8.054688 -19.9375 10.796875 -19.9375 C 13.421875 -19.9375 15.429688 -19.363281 16.828125 -18.21875 C 18.234375 -17.082031 18.9375 -15.347656 18.9375 -13.015625 L 18.9375 0 Z M 13.640625 -9.046875 L 11.578125 -8.984375 C 10.023438 -8.941406 8.867188 -8.660156 8.109375 -8.140625 C 7.347656 -7.628906 6.96875 -6.847656 6.96875 -5.796875 C 6.96875 -4.296875 7.832031 -3.546875 9.5625 -3.546875 C 10.789062 -3.546875 11.773438 -3.898438 12.515625 -4.609375 C 13.265625 -5.328125 13.640625 -6.273438 13.640625 -7.453125 Z M 13.640625 -9.046875 "/></g></g></g><g fill="#ffffff" fill-opacity="1"><g transform="translate(206.35102, 275.762149)"><g><path d="M 16.640625 0 L 15.921875 -2.5 L 15.640625 -2.5 C 15.066406 -1.59375 14.253906 -0.890625 13.203125 -0.390625 C 12.160156 0.0976562 10.96875 0.34375 9.625 0.34375 C 7.332031 0.34375 5.601562 -0.269531 4.4375 -1.5 C 3.269531 -2.726562 2.6875 -4.492188 2.6875 -6.796875 L 2.6875 -19.546875 L 8.015625 -19.546875 L 8.015625 -8.125 C 8.015625 -6.71875 8.265625 -5.660156 8.765625 -4.953125 C 9.273438 -4.242188 10.078125 -3.890625 11.171875 -3.890625 C 12.660156 -3.890625 13.738281 -4.390625 14.40625 -5.390625 C 15.070312 -6.390625 15.40625 -8.039062 15.40625 -10.34375 L 15.40625 -19.546875 L 20.734375 -19.546875 L 20.734375 0 Z M 16.640625 0 "/></g></g></g><g fill="#ffffff" fill-opacity="1"><g transform="translate(229.872541, 275.762149)"><g><path d="M 16.4375 -5.796875 C 16.4375 -3.796875 15.738281 -2.269531 14.34375 -1.21875 C 12.945312 -0.175781 10.863281 0.34375 8.09375 0.34375 C 6.664062 0.34375 5.453125 0.242188 4.453125 0.046875 C 3.453125 -0.140625 2.515625 -0.414062 1.640625 -0.78125 L 1.640625 -5.1875 C 2.628906 -4.71875 3.742188 -4.328125 4.984375 -4.015625 C 6.234375 -3.703125 7.328125 -3.546875 8.265625 -3.546875 C 10.203125 -3.546875 11.171875 -4.101562 11.171875 -5.21875 C 11.171875 -5.644531 11.039062 -5.988281 10.78125 -6.25 C 10.53125 -6.507812 10.085938 -6.804688 9.453125 -7.140625 C 8.828125 -7.472656 7.988281 -7.859375 6.9375 -8.296875 C 5.4375 -8.929688 4.332031 -9.515625 3.625 -10.046875 C 2.914062 -10.585938 2.398438 -11.203125 2.078125 -11.890625 C 1.765625 -12.585938 1.609375 -13.441406 1.609375 -14.453125 C 1.609375 -16.191406 2.28125 -17.535156 3.625 -18.484375 C 4.96875 -19.429688 6.875 -19.90625 9.34375 -19.90625 C 11.695312 -19.90625 13.988281 -19.394531 16.21875 -18.375 L 14.609375 -14.53125 C 13.628906 -14.945312 12.710938 -15.285156 11.859375 -15.546875 C 11.015625 -15.816406 10.148438 -15.953125 9.265625 -15.953125 C 7.691406 -15.953125 6.90625 -15.53125 6.90625 -14.6875 C 6.90625 -14.207031 7.15625 -13.789062 7.65625 -13.4375 C 8.164062 -13.09375 9.28125 -12.578125 11 -11.890625 C 12.519531 -11.265625 13.632812 -10.679688 14.34375 -10.140625 C 15.0625 -9.609375 15.585938 -8.992188 15.921875 -8.296875 C 16.265625 -7.597656 16.4375 -6.765625 16.4375 -5.796875 Z M 16.4375 -5.796875 "/></g></g></g><g fill="#ffffff" fill-opacity="1"><g transform="translate(247.66222, 275.762149)"><g><path d="M 10.890625 -16.109375 C 9.753906 -16.109375 8.863281 -15.75 8.21875 -15.03125 C 7.582031 -14.320312 7.21875 -13.304688 7.125 -11.984375 L 14.609375 -11.984375 C 14.585938 -13.304688 14.242188 -14.320312 13.578125 -15.03125 C 12.910156 -15.75 12.015625 -16.109375 10.890625 -16.109375 Z M 11.640625 0.34375 C 8.492188 0.34375 6.035156 -0.519531 4.265625 -2.25 C 2.492188 -3.988281 1.609375 -6.445312 1.609375 -9.625 C 1.609375 -12.90625 2.425781 -15.4375 4.0625 -17.21875 C 5.695312 -19.007812 7.960938 -19.90625 10.859375 -19.90625 C 13.617188 -19.90625 15.765625 -19.117188 17.296875 -17.546875 C 18.835938 -15.972656 19.609375 -13.800781 19.609375 -11.03125 L 19.609375 -8.4375 L 7.015625 -8.4375 C 7.066406 -6.925781 7.507812 -5.742188 8.34375 -4.890625 C 9.1875 -4.046875 10.367188 -3.625 11.890625 -3.625 C 13.066406 -3.625 14.175781 -3.742188 15.21875 -3.984375 C 16.269531 -4.234375 17.367188 -4.625 18.515625 -5.15625 L 18.515625 -1.03125 C 17.578125 -0.5625 16.578125 -0.21875 15.515625 0 C 14.460938 0.226562 13.171875 0.34375 11.640625 0.34375 Z M 11.640625 0.34375 "/></g></g></g></svg>